<?xml version="1.0" encoding="UTF-8"?>
<svg id="Capa_2" data-name="Capa 2" xmlns="http://www.w3.org/2000/svg" xmlns:xlink="http://www.w3.org/1999/xlink" viewBox="0 0 1630.66 1600.7">
  <defs>
    <style>
      .cls-1 {
        fill: #fefefe;
      }

      .cls-1, .cls-2, .cls-3, .cls-4, .cls-5, .cls-6 {
        stroke-width: 0px;
      }

      .cls-2 {
        fill: #c17576;
      }

      .cls-3 {
        fill: #fff;
      }

      .cls-4 {
        fill: #4f0527;
      }

      .cls-5 {
        fill: #b85576;
      }

      .cls-6 {
        fill: url(#Degradado_sin_nombre_23);
      }
    </style>
    <radialGradient id="Degradado_sin_nombre_23" data-name="Degradado sin nombre 23" cx="549.65" cy="549.65" fx="549.65" fy="549.65" r="549.65" gradientUnits="userSpaceOnUse">
      <stop offset="0" stop-color="#fff"/>
      <stop offset="1" stop-color="#fff" stop-opacity="0"/>
    </radialGradient>
  </defs>
  <g id="Capa_1-2" data-name="Capa 1">
    <g>
      <path class="cls-4" d="m1581.21,1600.7c-18.47-6.04-36.99-11.94-55.4-18.16-31.55-10.66-62.41-23.1-93.16-35.84-7.03-2.91-11.83-7.69-16.19-13.63-34.98-47.69-70.85-94.7-108.82-140.07-3.19-3.81-4.97-8.25-12.49-4.45-42.12,21.31-85.05-1.2-92.65-47.86-.29-1.79-.79-3.54-1.41-6.26-4.94,5.5-9.1,10.34-13.48,14.97-30.18,31.89-66.62,43.01-109.56,33.31-22.42-5.07-43.18-13.92-62.48-26.17-11.64-7.39-15.19-17.88-9.72-30.46,16.4-37.75,39.4-69.89,79.23-88.81-17.53-15.21-34.05-30.72-48.54-48.18-3.21-3.86-4.94-.8-7.27.81-27.62,19.14-58.89,18.26-81.39-2.23-23.03-20.98-26.74-52.26-9.82-81.81,4.32-7.54,12.51-15.96,11.36-22.7-1.22-7.22-13.79-8.64-21.27-12.83-58.76-32.95-109.26-74.98-145.67-132.42-3.25-5.13-6.06-6.25-11.73-4.27-8.91,3.11-18.13,5.38-27.3,7.69-25.45,6.41-51.4-2.99-66.36-23.86-15-20.93-16.13-48.74-1.52-70.38,4.82-7.15,3.26-9.12-3.31-12.94-20.45-11.86-37.37-26.55-35.06-53.5.24-2.82-1.44-4.02-3.27-5.4-45.53-34.36-84.57-75.93-126.59-114.18-20.99-19.11-29.79-44.23-28.69-72.69.59-15.28,5.31-29.79,8.26-44.62,3.1-15.58,6.98-31.01,10.47-46.52,7.01-31.18,27.03-48.88,58.95-52.48,17.32-1.95,34.6-4.33,51.88-6.59,2.06-.27,4.74.44,5.53-2.64h38.7c1.83,4.32,5.98,2.05,8.94,2.94,20.59,6.18,37.92,17.05,50.93,34.32,5.47,7.26,10.75,14.68,15.8,22.24,9.39,14.05,18.2,26.2,37.96,29.61,21.82,3.77,36.63,21.88,50.51,38.62,33.08,39.89,58.52,84.75,81.82,130.68,10.95,21.59,27.01,37.47,44.97,52.65,1.77-4.56,0-8.38-1-12.39-9.74-38.8-2.03-73.56,24.49-103.8,16.46-18.78,36.32-33.2,58.5-44.42,11.45-5.79,22.73-4.34,29.8,5.18,24.51,33,41.15,68.91,37.09,111.48-2.49,26.12-15.48,47.07-33,65.73-2.67,2.85-8.32,4.98-.08,9.39,41.5,22.16,60.89,59.5,68.94,103.93,4.08,22.54,3.79,45.31.48,67.96-1.01,6.93.33,11.78,6.01,16.71,33.35,28.96,62.51,61.83,88.5,97.49,4.06,5.57,6.32,6.83,12.9,2.47,36.86-24.45,84.54-5.79,95.11,37.32,8.04,32.82,11.99,66.35,13.18,100.11.3,8.51,2.79,14.87,8.47,21.16,78.01,86.43,154.31,174.34,226.46,265.77,15.49,19.63,30.85,39.41,43.43,61.09,13.97,24.09,9.99,37.44-14.11,48.93h-27.32Zm-20.42-56.98c.23.22.46.43.69.65l-.82-.52c-7.9-10.61-15.55-21.43-23.75-31.81-48.61-61.54-99.59-121.1-150.99-180.31-13.79-15.88-27.9-31.47-42.77-48.2-3.47,16.12-6.48,30.13-9.5,44.14-.81,7.06-8.9,13.81-2.63,21.05,30.59,35.29,58.59,72.65,87.92,108.95,17.6,25.04,32.49,52.81,66.09,60.74,9.45,2.23,18.22,7.2,27.53,10.16,16.06,5.11,31.1,13.49,48.23,15.16Zm-557.68-605.24c3.67-13.4,3.11-26.84.44-40.32-.89-4.5-2.69-7.57-8.1-7.58-15.85-.01-31.63.51-47.12,4.3-37.37,3.27-73.56,12.78-109.99,20.99-13.27,2.99-13.57,3.71-5.21,14.5,33.18,42.8,74.01,76.49,122.04,101.43,16.41,8.52,16.88,8.48,23.81-8.74,11-27.32,21.56-54.83,24.13-84.58Zm213.65,248.04c1.26-8.43-1.05-16.65-2.45-24.71-2.44-14.03-1.39-29.27-9.11-41.75-23.4-37.78-51.89-71.54-83.48-102.75-4.22-4.16-6.22-4.19-8.12,1.97-3.67,11.89-8.02,23.57-12.08,35.34-10.8,27.48-22.58,54.53-36.7,80.47-3.9,7.18-3.05,12.26,2.05,18.2,14.58,16.98,29.75,33.32,47.23,47.38,28.28,22.76,59.13,40.67,94.23,50.9,8.39,2.44,11.46.85,11.2-8.44-.53-18.9.5-37.85-2.76-56.62Zm-469.19-573.84c-2.89,20.53-5.31,41.14-8.76,61.58-6.75,39.95-16.01,78.93-48.94,106.93-5.28,4.49-3.39,7.53,1.38,10.35,11.76,6.95,24.33,12.19,36.7,17.9,6.37,2.94,12.05,3.02,18.46,1.16,39.6-11.47,79.72-20.85,120-29.57,11.85-2.33,23.7-4.66,36.93-7.27-13.82-14.66-28.63-24.94-37.23-42.03-20.06-39.86-41.88-78.86-67.44-115.59-10.62-15.26-21.95-29.9-36.23-42.02-5.67-4.81-9.4-5.64-10.72,3.71-1.64,11.59-3.97,23.07-4.16,34.83Zm-222.66-22.55c.14,17.95,5.64,29.61,18.1,41.21,20.53,19.12,41.11,38.18,61.73,57.2,15.05,13.88,29.91,27.98,45.38,41.37,13.92,12.05,17.82,11.12,25.91-5.02,12.07-24.09,15.8-50.37,19.61-76.61,4.46-30.68,5.23-61.91,13.66-91.99,1.16-4.13.23-7.12-2.17-10.45-10.41-14.44-20.29-29.28-30.93-43.54-11.32-15.16-26.74-21.81-45.69-19.53-18.8,2.27-37.59,4.64-56.37,7.06-28.43,3.66-28.78,3.61-34.69,31.55-5.08,24.03-11.77,47.74-14.56,68.74Zm454.7,254.4c47.18-.32,57.73.5,70.39,49.2.75,2.9.77,6.01,1.05,9.02,3.09,34.3-4.41,67.09-14.85,99.32-14.64,45.19-35.22,87.71-58.86,128.82-6,10.43-3.95,19.62,4.78,24.5,7.92,4.42,17.27,2.09,22.39-6.89,38.28-67.11,71.24-136.31,79.32-214.52,3.22-31.16-.9-61.28-17.89-88.58-10.98-17.64-25.88-29.47-47.15-31.93-15.1-1.75-30.19-2.43-45.4-1.16-84.66,7.08-166.15,29.05-247.36,52.34-11.4,3.27-16.6,12.03-13.65,21.06,3.06,9.35,11.58,12.97,23.18,9.81,23.73-6.47,47.35-13.36,71.19-19.39,59.15-14.97,118.51-28.88,172.87-31.59Zm319.28,387.08c-.42-39.7-4.56-76.56-11.61-113.1-2.3-11.94-9.35-17.74-19.3-16.26-10.06,1.49-14.7,9.63-12.52,22.53,4.04,23.92,7.93,47.88,9.24,72.11,2.43,44.8,3.12,89.4-15.1,131.99-3.73,8.71.1,16.72,9.35,20.32,8.72,3.39,15.74.09,20.04-7.96,2.66-4.97,4.6-10.37,6.44-15.72,10.75-31.24,12.96-63.68,13.46-93.91Zm-252.36-540.95c.03-14.65-6.41-37.19-13.41-48.66-2.2-3.6-3.75-5.07-7.73-2.18-44.86,32.63-50.99,64.04-26.65,111.73,1.14,2.23,2.03,4.27,5.83,2.74,19.3-7.76,41.91-41.67,41.96-63.63Zm127.84,599.91c-44.58-26.46-92.12-13.2-114.43,30.95-1.95,3.86-2.14,5.82,2.16,7.6,42.09,17.33,71.64,15.02,98.59-19.12,4.67-5.91,8.71-12.33,13.68-19.43Z"/>
      <path class="cls-3" d="m524.89,590.13c2.78-21,9.48-44.72,14.56-68.74,5.91-27.93,6.25-27.89,34.69-31.55,18.78-2.41,37.57-4.79,56.37-7.06,18.95-2.29,34.37,4.37,45.69,19.53,10.65,14.26,20.52,29.1,30.93,43.54,2.4,3.33,3.33,6.32,2.17,10.45-8.43,30.07-9.2,61.31-13.66,91.99-3.81,26.24-7.54,52.52-19.61,76.61-8.09,16.14-11.99,17.08-25.91,5.02-15.47-13.39-30.33-27.49-45.38-41.37-20.62-19.02-41.2-38.08-61.73-57.2-12.47-11.61-17.96-23.27-18.1-41.21Zm25.27-4.1c-1.78,8.17,1.32,15.98,5.95,23,7.07,10.74,15.9,20.21,25.91,28.16,10.75,8.54,20.93,7.03,30.11-2.89,9.1-9.83,8.69-21.73-1.31-32.31-7.91-8.37-15.77-15.73-13.6-29.75,1.67-10.78-9.33-20.8-20.21-22.44-9.3-1.4-21.52,6.64-24.43,16.59-1.79,6.13-3.43,12.42-2.4,19.63Z"/>
      <path class="cls-3" d="m979.59,844.53c-54.37,2.71-113.73,16.63-172.87,31.59-23.84,6.03-47.46,12.91-71.19,19.39-11.6,3.17-20.12-.46-23.18-9.81-2.95-9.02,2.25-17.79,13.65-21.06,81.21-23.29,162.71-45.26,247.36-52.34,15.21-1.27,30.3-.6,45.4,1.16,21.27,2.47,36.17,14.29,47.15,31.93,16.99,27.3,21.11,57.41,17.89,88.58-8.08,78.21-41.03,147.41-79.32,214.52-5.12,8.98-14.46,11.32-22.39,6.89-8.73-4.87-10.78-14.07-4.78-24.5,23.64-41.12,44.22-83.63,58.86-128.82,10.44-32.23,17.94-65.01,14.85-99.32-.27-3.02-.29-6.12-1.05-9.02-12.65-48.69-23.21-49.52-70.39-49.2Z"/>
      <path class="cls-2" d="m866.39,781.04c-40.28,8.72-80.4,18.09-120,29.57-6.41,1.86-12.09,1.78-18.46-1.16-12.37-5.7-24.95-10.95-36.7-17.9-4.77-2.82-6.67-5.86-1.38-10.35,32.93-28.01,42.2-66.99,48.94-106.93,3.45-20.44,5.87-41.05,8.76-61.58,18.67,22.25,32.45,47.57,46.03,73.02-7.88-.95-15.61-.9-19.19,7.88-3.77,9.24,2.13,14.81,8.54,20.07,3.5,2.87,6.89,5.94,9.94,9.27,6.96,7.6,14.67,8.52,23.34,3.3,2.09,5.36,6.05,8.91,10.21,12.88,13.96,13.32,29.74,25.02,39.96,41.93Z"/>
      <path class="cls-2" d="m1216.75,1186.52c3.26,18.76,2.23,37.72,2.76,56.62.26,9.29-2.81,10.88-11.2,8.44-35.1-10.22-65.95-28.14-94.23-50.9-17.48-14.07-32.65-30.4-47.23-47.38-5.1-5.94-5.96-11.03-2.05-18.2,14.12-25.94,25.9-53,36.7-80.47,6.1,2.6,7.91,8.59,10.87,13.69,4.72,8.12,7.3,17.38,14.13,24.4,19.23,19.76,39.26,38.71,57.73,59.26,10.53,11.71,19.83,24.8,32.52,34.54Zm-61.98-15.87c5.21-.38,9.45-2.48,11.83-7.34,2.76-5.65,2.23-11.34-2.07-15.72-6.58-6.71-13.49-13.17-20.83-19.03-6.28-5-12.82-3.56-18.15,2.14-5.54,5.93-5.44,12.35.1,18.12,6,6.24,12.41,12.09,18.8,17.93,2.83,2.59,6.27,4.17,10.32,3.9Z"/>
      <path class="cls-2" d="m1003.1,938.48c-2.58,29.75-13.13,57.26-24.13,84.58-6.93,17.22-7.4,17.26-23.81,8.74-48.03-24.94-88.85-58.64-122.04-101.43-8.36-10.78-8.06-11.51,5.21-14.5,36.43-8.21,72.62-17.71,109.99-20.99.36,5.38,3.29,8.66,7.95,11.25,16.65,9.25,31.98,20.46,46.83,32.34Zm-52.57,32.41c-.16-.58-.12-2.82-1.21-4.12-7.75-9.32-15.79-18.47-26.73-24.2-6.02-3.15-11.31-.43-15.07,4.3-4.19,5.28-4.53,11.94-.1,16.79,6.87,7.51,14.65,14.27,22.56,20.72,4.08,3.34,9.36,2.87,13.92.1,4.5-2.74,7.06-6.79,6.63-13.59Z"/>
      <path class="cls-5" d="m1333.63,1327.66c3.02-14.01,6.03-28.02,9.5-44.14,14.86,16.73,28.98,32.32,42.77,48.2,51.4,59.21,102.38,118.77,150.99,180.31,8.2,10.38,15.85,21.19,23.75,31.81l.14-.12c-17.14-1.66-32.17-10.05-48.23-15.16-9.32-2.96-18.09-7.93-27.53-10.16-33.6-7.93-48.49-35.7-66.09-60.74q16.21-.76,7.9-15.32c-.56-.98-1-2.04-1.64-2.96-24.61-35.52-52.33-68.64-79.41-102.24-3.15-3.91-6.18-8.8-12.14-9.48Z"/>
      <path class="cls-5" d="m866.39,781.04c-10.22-16.9-26-28.61-39.96-41.93-4.16-3.97-8.12-7.52-10.21-12.88,6.05-9.29,3.68-16.86-4.39-23.7-6.3-5.34-12.17-11.2-18.24-16.83-13.58-25.45-27.36-50.78-46.03-73.02.18-11.76,2.52-23.24,4.15-34.83,1.32-9.36,5.05-8.52,10.72-3.71,14.27,12.11,25.61,26.75,36.23,42.02,25.56,36.73,47.39,75.73,67.44,115.59,8.6,17.09,23.4,27.37,37.23,42.03-13.23,2.6-25.08,4.94-36.93,7.27Z"/>
      <path class="cls-3" d="m1298.86,1231.61c-.5,30.23-2.7,62.67-13.46,93.91-1.84,5.35-3.78,10.75-6.44,15.72-4.3,8.05-11.33,11.35-20.04,7.96-9.25-3.6-13.08-11.61-9.35-20.32,18.23-42.59,17.53-87.19,15.1-131.99-1.32-24.23-5.21-48.19-9.24-72.11-2.18-12.9,2.46-21.03,12.52-22.53,9.95-1.48,17,4.32,19.3,16.26,7.05,36.54,11.19,73.4,11.61,113.1Z"/>
      <path class="cls-5" d="m1216.75,1186.52c-12.69-9.74-21.99-22.83-32.52-34.54-18.48-20.56-38.5-39.51-57.73-59.26-6.83-7.02-9.42-16.27-14.13-24.4-2.96-5.11-4.77-11.09-10.87-13.69,4.07-11.77,8.41-23.45,12.09-35.34,1.9-6.16,3.91-6.13,8.12-1.97,31.59,31.21,60.08,64.98,83.48,102.75,7.72,12.47,6.67,27.72,9.11,41.75,1.4,8.06,3.72,16.29,2.45,24.71Z"/>
      <path class="cls-3" d="m1046.5,690.66c-.05,21.96-22.66,55.87-41.96,63.63-3.8,1.53-4.7-.51-5.83-2.74-24.33-47.69-18.21-79.1,26.65-111.73,3.98-2.9,5.54-1.42,7.73,2.18,7,11.47,13.44,34.02,13.41,48.66Z"/>
      <path class="cls-3" d="m1174.34,1290.57c-4.97,7.1-9.01,13.51-13.68,19.43-26.95,34.14-56.5,36.45-98.59,19.12-4.3-1.77-4.11-3.73-2.16-7.6,22.31-44.15,69.85-57.41,114.43-30.95Z"/>
      <path class="cls-2" d="m1333.63,1327.66c5.96.69,8.99,5.57,12.14,9.48,27.08,33.6,54.8,66.72,79.41,102.24.64.92,1.08,1.98,1.64,2.96q8.31,14.56-7.9,15.32c-29.33-36.3-57.33-73.66-87.92-108.95-6.27-7.24,1.82-13.99,2.63-21.05Z"/>
      <path class="cls-5" d="m1003.1,938.48c-14.85-11.88-30.18-23.09-46.83-32.34-4.66-2.59-7.6-5.87-7.95-11.25,15.49-3.79,31.27-4.31,47.12-4.3,5.41,0,7.21,3.08,8.1,7.58,2.68,13.47,3.23,26.92-.44,40.32Z"/>
      <path class="cls-5" d="m1560.64,1543.84l.82.52c-.23-.22-.46-.43-.69-.65,0,0-.14.12-.14.12Z"/>
      <path class="cls-1" d="m550.16,586.03c-1.03-7.21.61-13.5,2.4-19.63,2.91-9.95,15.13-17.99,24.43-16.59,10.88,1.63,21.88,11.66,20.21,22.44-2.17,14.02,5.69,21.38,13.6,29.75,10,10.58,10.41,22.48,1.31,32.31-9.17,9.91-19.35,11.42-30.11,2.89-10.01-7.95-18.84-17.42-25.91-28.16-4.62-7.02-7.73-14.83-5.95-23Z"/>
      <path class="cls-4" d="m793.59,685.71c6.06,5.63,11.93,11.48,18.24,16.83,8.07,6.84,10.44,14.41,4.39,23.7-8.68,5.22-16.39,4.3-23.34-3.31-3.05-3.33-6.44-6.4-9.94-9.27-6.41-5.26-12.31-10.83-8.54-20.07,3.58-8.78,11.32-8.83,19.19-7.88Z"/>
      <path class="cls-4" d="m1154.76,1170.65c-4.05.27-7.49-1.32-10.32-3.9-6.39-5.84-12.81-11.69-18.8-17.93-5.54-5.76-5.64-12.19-.1-18.12,5.33-5.7,11.88-7.14,18.15-2.14,7.34,5.85,14.25,12.32,20.83,19.03,4.3,4.38,4.83,10.08,2.07,15.72-2.38,4.86-6.61,6.96-11.83,7.34Z"/>
      <path class="cls-4" d="m950.53,970.89c.43,6.8-2.13,10.84-6.63,13.59-4.56,2.78-9.84,3.24-13.92-.1-7.9-6.46-15.69-13.21-22.56-20.72-4.43-4.85-4.09-11.51.1-16.79,3.76-4.73,9.05-7.45,15.07-4.3,10.94,5.73,18.98,14.88,26.73,24.2,1.09,1.31,1.06,3.54,1.21,4.12Z"/>
    </g>
    <circle class="cls-6" cx="549.65" cy="549.65" r="549.65"/>
  </g>
</svg>